<svg width="23" height="31" viewBox="0 0 23 31" fill="none" xmlns="http://www.w3.org/2000/svg">
<path d="M20.16 1.97136H13.7032C13.6814 1.97136 13.6624 1.95589 13.6581 1.93459C13.4306 0.813641 12.4342 0 11.2888 0C10.1435 0 9.14706 0.813641 8.91953 1.93465C8.91519 1.95595 8.89621 1.97142 8.87444 1.97142H2.4176C1.08454 1.97142 0 3.05596 0 4.38902V9.41063C0 9.65708 0.199796 9.85687 0.446239 9.85687C0.692681 9.85687 0.892477 9.65708 0.892477 9.41063V4.38902C0.892477 3.54807 1.57665 2.8639 2.4176 2.8639H5.91415V3.94278H2.91049C2.39267 3.94278 1.97142 4.36409 1.97142 4.88185V27.5528C1.97142 28.0706 2.39273 28.4919 2.91049 28.4919H4.4822C4.72864 28.4919 4.92844 28.2921 4.92844 28.0456C4.92844 27.7992 4.72864 27.5994 4.4822 27.5994H2.91049C2.88478 27.5994 2.8639 27.5784 2.8639 27.5528V4.88185C2.8639 4.85615 2.88484 4.83526 2.91049 4.83526H5.91415V5.86756C5.91415 6.38538 6.3354 6.80662 6.85321 6.80662H15.7244C16.2422 6.80662 16.6635 6.38532 16.6635 5.86756V4.83526H19.6672C19.6929 4.83526 19.7137 4.85621 19.7137 4.88185V27.5528C19.7137 27.5785 19.6928 27.5994 19.6672 27.5994H6.26715C6.02071 27.5994 5.82091 27.7992 5.82091 28.0456C5.82091 28.2921 6.02071 28.4919 6.26715 28.4919H19.6672C20.185 28.4919 20.6062 28.0706 20.6062 27.5528V4.88185C20.6062 4.36403 20.1849 3.94278 19.6672 3.94278H16.6635V2.86384H20.16C21.001 2.86384 21.6852 3.54801 21.6852 4.38896V28.0456C21.6852 28.8865 21.001 29.5707 20.16 29.5707H2.4176C1.57665 29.5707 0.892477 28.8865 0.892477 28.0456V11.1956C0.892477 10.9491 0.692681 10.7493 0.446239 10.7493C0.199796 10.7493 0 10.9491 0 11.1956V28.0456C0 29.3787 1.08454 30.4632 2.4176 30.4632H20.16C21.4931 30.4632 22.5776 29.3787 22.5776 28.0456V4.38902C22.5776 3.0559 21.4931 1.97136 20.16 1.97136ZM15.771 5.86756C15.771 5.89326 15.7501 5.91415 15.7244 5.91415H6.85321C6.82751 5.91415 6.80663 5.8932 6.80663 5.86756V2.86384H8.87444C9.31895 2.86384 9.70575 2.54772 9.79416 2.11214C9.93761 1.40541 10.5662 0.892477 11.2888 0.892477C12.0114 0.892477 12.64 1.40541 12.7835 2.11214C12.8719 2.54772 13.2587 2.86384 13.7032 2.86384H15.771V5.86756Z" fill="#5488FE"/>
<path d="M4.86498 11.7351H5.88436C6.39289 11.7351 6.80659 11.3214 6.80659 10.8128V9.79346C6.80659 9.28492 6.39289 8.87123 5.88436 8.87123H4.86498C4.35644 8.87123 3.94275 9.28492 3.94275 9.79346V10.8128C3.94275 11.3214 4.35644 11.7351 4.86498 11.7351ZM4.83523 9.79346C4.83523 9.77704 4.84855 9.76371 4.86498 9.76371H5.88436C5.90078 9.76371 5.91411 9.77704 5.91411 9.79346V10.8128C5.91411 10.8293 5.90078 10.8426 5.88436 10.8426H4.86498C4.84855 10.8426 4.83523 10.8293 4.83523 10.8128V9.79346Z" fill="#5488FE"/>
<path d="M12.7843 8.87123H8.80785C8.29931 8.87123 7.88562 9.28492 7.88562 9.79346V10.8128C7.88562 11.3214 8.29931 11.7351 8.80785 11.7351H12.7843C13.2928 11.7351 13.7065 11.3214 13.7065 10.8128V9.79346C13.7065 9.28492 13.2928 8.87123 12.7843 8.87123ZM12.8141 10.8128C12.8141 10.8293 12.8007 10.8426 12.7843 10.8426H8.80785C8.79142 10.8426 8.7781 10.8293 8.7781 10.8128V9.79346C8.7781 9.77704 8.79142 9.76371 8.80785 9.76371H12.7843C12.8007 9.76371 12.8141 9.77704 12.8141 9.79346V10.8128Z" fill="#5488FE"/>
<path d="M17.7126 11.7351C18.2211 11.7351 18.6348 11.3214 18.6348 10.8128V9.79346C18.6348 9.28492 18.2211 8.87123 17.7126 8.87123H15.7075C15.199 8.87123 14.7853 9.28492 14.7853 9.79346V10.8128C14.7853 11.3214 15.199 11.7351 15.7075 11.7351H17.7126ZM15.6778 10.8128V9.79346C15.6778 9.77704 15.6911 9.76371 15.7076 9.76371H17.7127C17.7291 9.76371 17.7424 9.77704 17.7424 9.79346V10.8128C17.7424 10.8293 17.7291 10.8426 17.7127 10.8426H15.7076C15.6911 10.8426 15.6778 10.8293 15.6778 10.8128Z" fill="#5488FE"/>
<path d="M12.814 18.6647V19.6841C12.814 20.1926 13.2277 20.6063 13.7362 20.6063H17.7127C18.2212 20.6063 18.6349 20.1926 18.6349 19.6841V18.6647C18.6349 18.1561 18.2212 17.7424 17.7127 17.7424H13.7362C13.2277 17.7424 12.814 18.1561 12.814 18.6647ZM17.7424 18.6647V19.6841C17.7424 19.7005 17.7291 19.7138 17.7127 19.7138H13.7362C13.7198 19.7138 13.7064 19.7005 13.7064 19.6841V18.6647C13.7064 18.6483 13.7198 18.6349 13.7362 18.6349H17.7127C17.7291 18.6349 17.7424 18.6483 17.7424 18.6647Z" fill="#5488FE"/>
<path d="M7.88562 19.6841C7.88562 20.1926 8.29931 20.6063 8.80785 20.6063H10.8129C11.3215 20.6063 11.7352 20.1926 11.7352 19.6841V18.6647C11.7352 18.1561 11.3215 17.7424 10.8129 17.7424H8.80785C8.29931 17.7424 7.88562 18.1561 7.88562 18.6647V19.6841ZM8.7781 18.6647C8.7781 18.6483 8.79142 18.6349 8.80785 18.6349H10.8129C10.8294 18.6349 10.8427 18.6483 10.8427 18.6647V19.6841C10.8427 19.7005 10.8294 19.7138 10.8129 19.7138H8.80785C8.79142 19.7138 8.7781 19.7005 8.7781 19.6841V18.6647Z" fill="#5488FE"/>
<path d="M7.88562 14.7556C7.88562 15.2641 8.29931 15.6778 8.80785 15.6778H12.7843C13.2928 15.6778 13.7065 15.2641 13.7065 14.7556V13.7362C13.7065 13.2277 13.2928 12.814 12.7843 12.814H8.80785C8.29931 12.814 7.88562 13.2277 7.88562 13.7362V14.7556ZM8.7781 13.7362C8.7781 13.7198 8.79142 13.7065 8.80785 13.7065H12.7843C12.8007 13.7065 12.8141 13.7198 12.8141 13.7362V14.7556C12.8141 14.772 12.8007 14.7854 12.7843 14.7854H8.80785C8.79142 14.7854 8.7781 14.772 8.7781 14.7556V13.7362Z" fill="#5488FE"/>
<path d="M3.94275 19.6841C3.94275 20.1926 4.35644 20.6063 4.86498 20.6063H5.88436C6.39289 20.6063 6.80659 20.1926 6.80659 19.6841V18.6647C6.80659 18.1561 6.39289 17.7424 5.88436 17.7424H4.86498C4.35644 17.7424 3.94275 18.1561 3.94275 18.6647V19.6841ZM4.83523 18.6647C4.83523 18.6483 4.84855 18.6349 4.86498 18.6349H5.88436C5.90078 18.6349 5.91411 18.6483 5.91411 18.6647V19.6841C5.91411 19.7005 5.90078 19.7138 5.88436 19.7138H4.86498C4.84855 19.7138 4.83523 19.7005 4.83523 19.6841V18.6647Z" fill="#5488FE"/>
<path d="M7.88562 23.6268C7.88562 24.1354 8.29931 24.5491 8.80785 24.5491H12.7843C13.2928 24.5491 13.7065 24.1354 13.7065 23.6268V22.6075C13.7065 22.0989 13.2928 21.6852 12.7843 21.6852H8.80785C8.29931 21.6852 7.88562 22.0989 7.88562 22.6075V23.6268ZM8.7781 22.6075C8.7781 22.591 8.79142 22.5777 8.80785 22.5777H12.7843C12.8007 22.5777 12.8141 22.591 12.8141 22.6075V23.6268C12.8141 23.6433 12.8007 23.6566 12.7843 23.6566H8.80785C8.79142 23.6566 8.7781 23.6433 8.7781 23.6268V22.6075Z" fill="#5488FE"/>
<path d="M11.2889 1.97136C11.0424 1.97136 10.8427 2.17116 10.8427 2.4176V2.91042C10.8427 3.15687 11.0424 3.35666 11.2889 3.35666C11.5353 3.35666 11.7351 3.15687 11.7351 2.91042V2.4176C11.7351 2.17116 11.5353 1.97136 11.2889 1.97136Z" fill="#5488FE"/>
</svg>
