<svg width="24" height="24" viewBox="0 0 24 24" fill="none" xmlns="http://www.w3.org/2000/svg">
<path d="M10.1257 7.19041C11.2282 7.19041 12.1248 6.29389 12.1248 5.19139C12.1248 4.0889 11.2282 3.19232 10.1257 3.19232C9.02323 3.19232 8.12671 4.0889 8.12671 5.19139C8.12671 6.29388 9.02324 7.19041 10.1257 7.19041ZM10.1257 4.34165C10.5941 4.34165 10.9755 4.72303 10.9755 5.19139C10.9755 5.65969 10.5941 6.04109 10.1257 6.04109C9.65742 6.04109 9.27603 5.6597 9.27603 5.19139C9.27603 4.72306 9.65743 4.34165 10.1257 4.34165Z" fill="#AA83C2" stroke="#AA83C2" stroke-width="0.5"/>
<path d="M9.48232 20.1671C10.7241 20.1671 11.7339 19.1572 11.7339 17.9155C11.7339 16.6737 10.7241 15.6638 9.48232 15.6638C8.24057 15.6638 7.23071 16.6737 7.23071 17.9155C7.23071 19.1572 8.24057 20.1671 9.48232 20.1671ZM9.48232 16.8132C10.0899 16.8132 10.5846 17.3079 10.5846 17.9155C10.5846 18.523 10.0899 19.0177 9.48232 19.0177C8.87475 19.0177 8.38004 18.523 8.38004 17.9155C8.38004 17.3079 8.87471 16.8132 9.48232 16.8132Z" fill="#AA83C2" stroke="#AA83C2" stroke-width="0.5"/>
<path d="M6.61561 6.44809C5.30741 6.44809 4.24353 7.51197 4.24353 8.82017C4.24353 10.1284 5.30741 11.1923 6.61561 11.1923C7.92381 11.1923 8.9877 10.1284 8.9877 8.82017C8.9877 7.51197 7.92381 6.44809 6.61561 6.44809ZM6.61561 10.043C5.94159 10.043 5.39286 9.49423 5.39286 8.82022C5.39286 8.1462 5.94163 7.59746 6.61561 7.59746C7.28959 7.59746 7.83837 8.1462 7.83837 8.82022C7.83837 9.49423 7.28963 10.043 6.61561 10.043Z" fill="#AA83C2" stroke="#AA83C2" stroke-width="0.5"/>
<path d="M6.00795 16.3456C7.31615 16.3456 8.38003 15.2817 8.38003 13.9735C8.38003 12.6653 7.31615 11.6014 6.00795 11.6014C4.69975 11.6014 3.63586 12.6653 3.63586 13.9735C3.63586 15.2817 4.69975 16.3456 6.00795 16.3456ZM6.00795 12.7507C6.68197 12.7507 7.2307 13.2994 7.2307 13.9734C7.2307 14.6475 6.68193 15.1962 6.00795 15.1962C5.33397 15.1962 4.78519 14.6475 4.78519 13.9734C4.78519 13.2994 5.33393 12.7507 6.00795 12.7507Z" fill="#AA83C2" stroke="#AA83C2" stroke-width="0.5"/>
<path d="M1.69907 11.0226L1.94785 11.0473C1.65031 14.0513 2.73262 16.9389 5.20474 19.6378C6.02989 20.5387 7.09427 21.1287 8.28453 21.346C8.59669 21.403 8.80372 21.7023 8.74662 22.0146C8.68962 22.3264 8.39046 22.534 8.07811 22.4767C8.07799 22.4767 8.07787 22.4766 8.07775 22.4766L8.12301 22.2307L1.69907 11.0226ZM1.69907 11.0226L1.94785 11.0473C2.28392 7.65387 4.23827 5.1107 6.94887 3.57587C9.66405 2.03845 13.1346 1.51676 16.4696 2.18379L16.5186 1.93895M1.69907 11.0226L16.5186 1.93895M16.5186 1.93895L16.4697 2.1838C17.2424 2.33833 17.5452 2.96027 17.5685 3.46336L17.5685 3.4634M16.5186 1.93895L17.5685 3.4634M17.5685 3.4634C17.5916 3.95904 17.3516 4.59617 16.6084 4.81819C15.4399 5.16725 14.4973 5.68212 13.8219 6.35965L13.999 6.53614M17.5685 3.4634L13.999 6.53614M13.999 6.53614L13.8219 6.35965C12.2667 7.91984 12.136 10.5419 13.6146 12.3074C14.2589 13.0768 14.6766 14.0063 14.8275 15.0047C14.1087 16.643 13.3759 18.4887 12.8021 20.2068C11.9169 20.9185 10.8066 21.3503 9.65894 21.4252C9.34224 21.4459 9.10223 21.7194 9.12292 22.0361L9.12292 22.0362M13.999 6.53614L9.12292 22.0362M9.12292 22.0362C9.14285 22.3402 9.39549 22.5734 9.6961 22.5734M9.12292 22.0362L9.6961 22.5734M17.1574 17.9129L17.1575 17.9129C17.4459 18.045 17.5729 18.386 17.4407 18.6746C17.4407 18.6746 17.4407 18.6746 17.4407 18.6747L17.2134 18.5706L17.1574 17.9129ZM17.1574 17.9129C16.8687 17.7807 16.5278 17.9078 16.3957 18.1962L16.3957 18.1963M17.1574 17.9129L16.3957 18.1963M16.3957 18.1963C15.7492 19.6087 15.0837 20.9276 14.4716 22.0105C14.3426 22.2389 14.0555 22.329 13.8193 22.2157C13.5941 22.1074 13.4849 21.8585 13.5567 21.6218L13.5567 21.6217M16.3957 18.1963L13.5567 21.6217M13.5567 21.6217C14.3673 18.9478 15.7068 15.7024 16.9538 13.1406L18.2619 13.7005C17.877 14.7359 17.4456 15.8053 17.006 16.823L17.0059 16.8231M13.5567 21.6217L17.0059 16.8231M17.0059 16.8231C16.8802 17.1145 17.0145 17.4526 17.3059 17.5783L17.3059 17.5784M17.0059 16.8231L17.3059 17.5784M17.3059 17.5784C17.5977 17.7042 17.9355 17.5697 18.0612 17.2784L18.0613 17.2783M17.3059 17.5784L18.0613 17.2783M18.0613 17.2783C18.9384 15.2428 19.9185 12.7028 20.5071 10.5384M18.0613 17.2783L20.2969 10.358M22.4018 2.22165L22.4018 2.22166C22.6636 2.33373 22.8569 2.56601 22.9195 2.84386M22.4018 2.22165L22.6757 2.89882M22.4018 2.22165C22.14 2.1096 21.8385 2.12995 21.5942 2.27647C21.1304 2.55453 20.4872 2.97184 19.8962 3.46592C19.311 3.95511 18.7501 4.5414 18.4842 5.16262C18.095 6.07173 18.1395 7.02202 18.2494 7.67439C18.1494 7.76777 18.0692 7.88163 18.0141 8.01037C18.0141 8.01038 18.0141 8.01038 18.0141 8.01039L17.7332 8.66676L22.4018 2.22165ZM22.9195 2.84386L22.6757 2.89882M22.9195 2.84386C22.9195 2.84384 22.9195 2.84383 22.9195 2.84382L22.6757 2.89882M22.9195 2.84386C23.0385 3.37132 23.1806 4.12475 23.2311 4.89339C23.281 5.65445 23.2439 6.46496 22.978 7.08623M22.6757 2.89882C22.9106 3.94042 23.2324 5.85674 22.7481 6.98785M22.978 7.08623L22.7481 6.98785M22.978 7.08623C22.978 7.08624 22.978 7.08624 22.978 7.08625L22.7481 6.98785M22.978 7.08623C22.5887 7.99571 21.8701 8.61961 21.3221 8.99031C21.3236 9.12443 21.298 9.26109 21.2419 9.39211M22.7481 6.98785L21.0121 9.29372M21.2419 9.39211L21.0121 9.29372M21.2419 9.39211L21.2419 9.3921L21.0121 9.29372M21.2419 9.39211L20.961 10.0485C20.8725 10.2553 20.7169 10.4296 20.5071 10.5384M21.0121 9.29372L20.7311 9.95014C20.6521 10.1347 20.5031 10.2839 20.2969 10.358M20.5071 10.5384C20.5177 10.4996 20.5281 10.461 20.5384 10.4225L20.2969 10.358M20.5071 10.5384C20.4672 10.5591 20.4252 10.5775 20.3814 10.5932L20.2969 10.358M20.6351 8.27914L20.7183 8.0848L20.7181 8.0847L20.6351 8.2791L20.6351 8.27914ZM20.6351 8.27914L20.6199 8.31463L20.6351 8.27914ZM9.6961 22.5734C9.70777 22.5734 9.72041 22.573 9.73386 22.5721M9.6961 22.5734L9.73386 22.5721M9.73386 22.5721C10.6609 22.5116 11.5675 22.2576 12.3865 21.8378L9.73386 22.5721ZM14.4958 11.5696L14.3041 11.7301L17.7332 8.66679C17.644 8.8751 17.6263 9.10749 17.692 9.33321C16.9415 10.5757 16.2004 12.0306 15.5691 13.3724C15.3109 12.7208 14.9503 12.1124 14.4958 11.5696ZM19.3879 7.51528C19.2964 6.99692 19.2596 6.27169 19.5407 5.61487C19.6492 5.36133 20.1086 4.56656 21.8745 3.453C22.288 5.49949 22.0299 6.3803 21.9213 6.63391C21.6401 7.29083 21.0899 7.76476 20.6517 8.0563L19.3879 7.51528ZM17.4686 12.1107C17.8486 11.3712 18.2211 10.6926 18.568 10.1073L18.9552 10.273L19.3423 10.4387C19.1582 11.0939 18.9243 11.8319 18.6516 12.6171L17.4686 12.1107ZM20.1249 9.08092L19.9648 9.455L18.8501 8.97784L19.0102 8.60377L20.1249 9.08092ZM18.8691 8.54338L18.8692 8.5434L18.8691 8.54338ZM20.1058 9.51535C20.1059 9.51539 20.106 9.51543 20.106 9.51547L20.1059 9.51543L20.1058 9.51535Z" fill="#AA83C2" stroke="#AA83C2" stroke-width="0.5"/>
</svg>
