<svg width="27" height="27" viewBox="0 0 27 27" fill="none" xmlns="http://www.w3.org/2000/svg">
<path d="M1 21.8333V13.5C1 10.1848 2.31696 7.00537 4.66116 4.66117C7.00537 2.31696 10.1848 1 13.5 1C16.8152 1 19.9946 2.31696 22.3388 4.66117C24.683 7.00537 26 10.1848 26 13.5V21.8333" stroke="#E59D91" stroke-width="2" stroke-linecap="round" stroke-linejoin="round"/>
<path d="M26 23.2222C26 23.9589 25.7073 24.6655 25.1864 25.1864C24.6655 25.7073 23.9589 26 23.2222 26H21.8333C21.0966 26 20.3901 25.7073 19.8691 25.1864C19.3482 24.6655 19.0556 23.9589 19.0556 23.2222V19.0556C19.0556 18.3188 19.3482 17.6123 19.8691 17.0914C20.3901 16.5704 21.0966 16.2778 21.8333 16.2778H26V23.2222ZM1 23.2222C1 23.9589 1.29266 24.6655 1.81359 25.1864C2.33453 25.7073 3.04107 26 3.77778 26H5.16667C5.90338 26 6.60992 25.7073 7.13085 25.1864C7.65179 24.6655 7.94444 23.9589 7.94444 23.2222V19.0556C7.94444 18.3188 7.65179 17.6123 7.13085 17.0914C6.60992 16.5704 5.90338 16.2778 5.16667 16.2778H1V23.2222Z" stroke="#E59D91" stroke-width="2" stroke-linecap="round" stroke-linejoin="round"/>
</svg>
