<svg width="26" height="24" viewBox="0 0 26 24" fill="none" xmlns="http://www.w3.org/2000/svg">
<path d="M9.38099 23C9.95958 23 10.4286 22.531 10.4286 21.9524C10.4286 21.3738 9.95958 20.9048 9.38099 20.9048C8.80241 20.9048 8.33337 21.3738 8.33337 21.9524C8.33337 22.531 8.80241 23 9.38099 23Z" stroke="#52A6A8" stroke-width="2" stroke-linecap="round" stroke-linejoin="round"/>
<path d="M20.9048 23C21.4834 23 21.9524 22.531 21.9524 21.9524C21.9524 21.3738 21.4834 20.9048 20.9048 20.9048C20.3262 20.9048 19.8572 21.3738 19.8572 21.9524C19.8572 22.531 20.3262 23 20.9048 23Z" stroke="#52A6A8" stroke-width="2" stroke-linecap="round" stroke-linejoin="round"/>
<path d="M1 1H5.19048L7.99809 15.0276C8.09389 15.5099 8.35628 15.9432 8.73933 16.2515C9.12238 16.5599 9.60168 16.7237 10.0933 16.7143H20.2762C20.7678 16.7237 21.2471 16.5599 21.6302 16.2515C22.0132 15.9432 22.2756 15.5099 22.3714 15.0276L24.0476 6.23809H6.23809" stroke="#52A6A8" stroke-width="2" stroke-linecap="round" stroke-linejoin="round"/>
</svg>
