<svg width="28" height="28" viewBox="0 0 28 28" fill="none" xmlns="http://www.w3.org/2000/svg">
<path d="M26.5645 19.4094L26.5645 19.4094L25.7345 20.2392L27.0532 24.666L27.0533 24.6661C27.1138 24.87 27.0581 25.0911 26.9074 25.2416M26.5645 19.4094L26.8191 25.1532M26.5645 19.4094C27.1688 18.8048 27.1688 17.8216 26.5645 17.217L26.5645 17.2169M26.5645 19.4094L26.5645 17.2169M26.9074 25.2416L26.8191 25.1532M26.9074 25.2416L26.9074 25.2415L26.8191 25.1532M26.9074 25.2416L25.7497 26.3994M26.8191 25.1532L25.6612 26.3111M25.7497 26.3994L25.6612 26.3111M25.7497 26.3994L25.7496 26.3994L25.6612 26.3111M25.7497 26.3994C25.5012 26.6481 25.0793 26.6155 24.8718 26.3319L18.669 17.8571C18.669 17.8571 18.669 17.857 18.6689 17.857C18.4796 17.5986 18.5358 17.2358 18.7944 17.0465L18.7944 17.0465C19.0527 16.8575 19.4155 16.9136 19.6046 17.172L25.4079 25.101L25.8431 24.6659L21.6373 10.546C20.3494 11.7622 18.9422 13.0453 17.5164 14.3189L18.4025 15.5296L18.3016 15.6034L18.4025 15.5296C18.5724 15.7618 18.544 16.0928 18.3345 16.2917C18.0839 16.5298 17.6714 16.4943 17.4666 16.2144L17.4666 16.2144L16.6462 15.0932C13.8257 17.5927 11.0119 19.9949 8.97719 21.7113L10.229 24.9662L25.6612 26.3111M26.5645 17.2169C26.2718 16.9245 25.8822 16.763 25.4682 16.763C25.2149 16.763 24.9702 16.8235 24.7514 16.9379L24.6325 16.5386L25.5352 15.6356C26.1397 15.031 26.1397 14.0477 25.5352 13.4434M26.5645 17.2169L25.5352 13.4434M26.4246 4.8365L26.5356 4.89388C25.9676 5.99332 25.0022 7.24854 23.82 8.43107L23.7316 8.3427L23.82 8.43108C23.4277 8.82339 23.0125 9.22991 22.5797 9.64728L23.6413 13.2117C24.2368 12.8538 25.0221 12.93 25.5352 13.4433C25.5352 13.4433 25.5352 13.4434 25.5352 13.4434M26.4246 4.8365L25.5352 13.4434M26.4246 4.8365L26.5356 4.89386C27.0161 3.96371 27.1627 3.2368 27.1171 2.67M26.4246 4.8365L27.1171 2.67M23.1636 1.57558L23.1063 1.46452C24.0365 0.984041 24.7634 0.83735 25.3301 0.882855C25.8995 0.928572 26.2962 1.16745 26.5643 1.43564L23.1636 1.57558ZM23.1636 1.57558L23.1062 1.46452C22.0071 2.03238 20.7517 2.9978 19.5695 4.18035C19.1772 4.57261 18.7706 4.98759 18.3534 5.42046L14.789 4.35876M23.1636 1.57558L14.789 4.35876M14.789 4.35876C15.1469 3.76342 15.0707 2.97813 14.5576 2.46481L14.5576 2.46477C13.9531 1.86048 12.9698 1.86016 12.3655 2.46481L11.4625 3.36781L11.063 3.24882C11.1774 3.02985 11.2379 2.78518 11.2379 2.53175C11.2379 2.11798 11.0765 1.72816 10.784 1.43566C10.1797 0.831056 9.19622 0.83105 8.5919 1.43564C8.59189 1.43565 8.59189 1.43565 8.59188 1.43566L7.76214 2.26545L3.33569 0.946858L3.33555 0.946818C3.13149 0.886284 2.91064 0.941946 2.76016 1.09267L14.789 4.35876ZM27.1171 2.67C27.0714 2.10058 26.8324 1.70384 26.5643 1.43566L27.1171 2.67ZM2.76007 1.09276L1.60238 2.25052C1.60236 2.25054 1.60235 2.25056 1.60233 2.25058C1.35366 2.49903 1.38631 2.92096 1.66988 3.12838L12.9076 11.3546C10.4085 14.175 8.00647 16.9893 6.2902 19.0241L3.03512 17.772L3.03509 17.772C2.82121 17.6898 2.57904 17.7411 2.41697 17.9031L1.04472 19.2755L1.04466 19.2755C0.81848 19.502 0.818396 19.869 1.04472 20.0953L7.90571 26.9568C8.1297 27.1811 8.5017 27.181 8.72584 26.9569L10.0979 25.5847C10.2598 25.4228 10.3115 25.1804 10.229 24.9663L2.76007 1.09276ZM13.1855 3.28491L13.1856 3.28489C13.3354 3.13504 13.5879 3.13504 13.7378 3.28489C13.89 3.4371 13.89 3.68492 13.7378 3.83714L13.5772 3.99772L12.7262 3.74416L13.1855 3.28491ZM9.41197 2.25575L9.41203 2.25569C9.56395 2.10358 9.81193 2.10351 9.96416 2.25575C10.1164 2.40796 10.1164 2.65578 9.96416 2.80799L9.87661 2.8954L9.02574 2.64201L9.41197 2.25575ZM20.3896 5.00021L20.3012 4.91182L20.3896 5.0002C21.4792 3.91028 22.6647 2.99806 23.6385 2.49498L23.6386 2.49497C24.0053 2.30542 24.4261 2.12889 24.8134 2.06141C25.2031 1.9935 25.5291 2.04036 25.7444 2.25575C25.9598 2.47113 26.0066 2.7971 25.9387 3.18687C25.8712 3.57417 25.6946 3.99499 25.5052 4.36178C25.0022 5.33571 24.0898 6.52103 22.9999 7.61098C17.5631 13.0481 7.7228 21.2646 5.60822 23.0192L4.98239 22.3933C6.73654 20.2786 14.9523 10.4378 20.3896 5.00021ZM24.1631 14.2633L24.1632 14.2632C24.3151 14.1111 24.563 14.1111 24.7153 14.2632C24.8652 14.4131 24.8652 14.6656 24.7153 14.8155L24.2559 15.2749L24.0024 14.4239L24.1631 14.2633ZM3.3357 2.15706L17.4547 6.36291C16.2386 7.6511 14.9555 9.05845 13.6818 10.4843L2.90049 2.59213L3.3357 2.15706ZM2.27471 19.6854L2.97058 18.9897L5.50052 19.9628C4.91999 20.6547 4.46086 21.2059 4.15879 21.5696L2.27471 19.6854ZM8.03853 22.501L9.01158 25.0311L8.31593 25.7268L6.43184 23.8426C6.79543 23.5407 7.34673 23.0816 8.03853 22.501ZM25.1922 18.0371C25.3444 17.8849 25.5922 17.8849 25.7444 18.0371C25.8966 18.1893 25.8966 18.4371 25.7444 18.5893L25.3582 18.9756L25.1046 18.1247L25.1922 18.0371Z" fill="#76BE8E" stroke="#76BE8E" stroke-width="0.25"/>
</svg>
