<svg width="30" height="27" viewBox="0 0 30 27" fill="none" xmlns="http://www.w3.org/2000/svg">
<path d="M26 6.55556H3.77778C2.24365 6.55556 1 7.79921 1 9.33333V23.2222C1 24.7563 2.24365 26 3.77778 26H26C27.5341 26 28.7778 24.7563 28.7778 23.2222V9.33333C28.7778 7.79921 27.5341 6.55556 26 6.55556Z" stroke="#F8BD83" stroke-width="2" stroke-linecap="round" stroke-linejoin="round"/>
<path d="M20.4445 26V3.77778C20.4445 3.04107 20.1518 2.33453 19.6309 1.81359C19.11 1.29266 18.4034 1 17.6667 1H12.1112C11.3744 1 10.6679 1.29266 10.147 1.81359C9.62603 2.33453 9.33337 3.04107 9.33337 3.77778V26" stroke="#F8BD83" stroke-width="2" stroke-linecap="round" stroke-linejoin="round"/>
</svg>
